<?xml version="1.0" encoding="UTF-8"?>
<svg xmlns="http://www.w3.org/2000/svg" version="1.1" viewBox="0 0 600 600">
  <defs>
    <style>
      .cls-1, .cls-2 {
        fill: #000;
      }

      .cls-1, .cls-2, .cls-3, .cls-4 {
        stroke-width: 0px;
      }

      .cls-2, .cls-4 {
        isolation: isolate;
        opacity: .4;
      }

      .cls-3 {
        fill: #f1f3f4;
      }

      .cls-4 {
        fill: #fff;
      }
    </style>
  </defs>
  <g id="Layer_1" data-name="Layer 1" focusable="false">
    <circle class="cls-3" cx="300" cy="300" r="300"/>
    <g>
      <path class="cls-4" d="M356.4,174.6h-112.8c-20.8,0-37.6,14-37.6,31.3v18.8c0,41.6,33.7,75.2,75.2,75.2h37.6c41.6,0,75.2-33.7,75.2-75.2v-18.7c0-17.3-16.8-31.4-37.6-31.4ZM271.8,234.2l-9.4,28.2-9.4-28.2-28.2-9.4,28.2-9.4,9.4-28.2,9.4,28.2,28.2,9.4-28.2,9.4ZM262.4,450.5c-6.9,0-12.5,5.6-12.5,12.5v37.6h25.1v-37.6c-.1-6.9-5.7-12.5-12.6-12.5ZM337.6,450.5c-6.9,0-12.5,5.6-12.5,12.5s5.6,12.5,12.5,12.5,12.5-5.6,12.5-12.5c.1-6.9-5.6-12.5-12.5-12.5Z"/>
      <g>
        <path class="cls-2" d="M354.9,174.6h-109.9c-20.2,0-36.6,14-36.6,31.3v18.8c0,41.5,32.8,75.2,73.3,75.2h36.6c40.5,0,73.3-33.7,73.3-75.2v-18.8c-.1-17.3-16.5-31.3-36.7-31.3ZM272.5,234.1l-9.2,28.2-9.2-28.2-27.5-9.4,27.5-9.4,9.2-28.2,9.2,28.2,27.5,9.4-27.5,9.4ZM263.3,450.3c-6.7,0-12.2,5.6-12.2,12.5v37.6h24.4v-37.6c0-6.9-5.4-12.5-12.2-12.5ZM336.6,450.3c-6.7,0-12.2,5.6-12.2,12.5s5.5,12.5,12.2,12.5,12.2-5.6,12.2-12.5-5.5-12.5-12.2-12.5Z"/>
        <path class="cls-1" d="M379,351.2c-48.1,32-110,32-158.1,0-51.5,5.5-91.9,49.8-91.9,104.1v7.5c0,20.8,16.4,37.6,36.6,37.6h61v-50.1c0-13.8,10.9-25.1,24.4-25.1h97.7c13.5,0,24.4,11.2,24.4,25.1v50.1h61c20.2,0,36.6-16.8,36.6-37.6h0v-7.5c.2-54.3-40.2-98.6-91.7-104.1ZM177.9,274.8h10.3c26.9,63.4,98.7,92.4,160.5,64.8,28.3-12.6,50.8-35.8,63.1-64.8h10.2c6.7,0,12.2-5.6,12.2-12.5v-75.2c0-6.9-5.5-12.5-12.2-12.5h-10.3c-26.9-63.4-98.7-92.4-160.5-64.8-28.3,12.6-50.8,35.8-63.1,64.8h-10.3c-6.7,0-12.2,5.6-12.2,12.5v75.2c0,6.9,5.5,12.5,12.3,12.5ZM208.4,205.9c0-17.3,16.4-31.3,36.6-31.3h109.9c20.2,0,36.6,14,36.6,31.3v18.8c0,41.5-32.8,75.2-73.3,75.2h-36.6c-40.5,0-73.3-33.7-73.3-75.2v-18.8h0Z"/>
      </g>
    </g>
  </g>
</svg>